# xmcd CD database file
#
# Track frame offsets:
#	150
#	25387
#	57922
#
# Disc length: 1106 seconds
#
# Revision: 5
# Processed by: cddbd v1.5PL3 Copyright (c) Steve Scherf et al.
# Submitted via: CDex 1.50beta9
#
DISCID=20045003
DTITLE=globe - wanna Be A Dreammaker
DYEAR=1998
DGENRE=J-POP
TTITLE0=wanna Be A Dreammaker(Straight Run)
TTITLE1=wanna Be A Dreammaker(Sigmund Freud Mix)
TTITLE2=wanna Be A Dreammaker(Instrumental)
EXTD=YEAR: 1998
EXTT0=
EXTT1=
EXTT2=
PLAYORDER=
